<?xml version="1.0" encoding="utf-8"?>
<!-- Generator: Adobe Illustrator 25.0.1, SVG Export Plug-In . SVG Version: 6.00 Build 0)  -->
<svg version="1.1" id="Layer_1" xmlns="http://www.w3.org/2000/svg" xmlns:xlink="http://www.w3.org/1999/xlink" x="0px" y="0px"
	 viewBox="0 0 32 32" style="enable-background:new 0 0 32 32;" xml:space="preserve">
<style type="text/css">
	.st0{fill:#FFFFFF;}
</style>
<g>
	<path d="M24.9,31.8H7.1c-3.8,0-6.9-3.1-6.9-6.9V7.1c0-3.8,3.1-6.9,6.9-6.9h17.8c3.8,0,6.9,3.1,6.9,6.9v17.8
		C31.8,28.7,28.7,31.8,24.9,31.8z"/>
</g>
<g>
	<g>
		<path class="st0" d="M8.7,14.5c-6.4,0-7.3-3-7.3-4.9V9.2c0-2,0.8-4.8,7.3-4.8h0.5c6.2,0,7.1,2.7,7.1,4.1v0.2h-4.5
			c-0.1-0.2-0.3-1.4-2.9-1.4C6.4,7.2,6,8.3,6,9.3v0.2c0,0.9,0.5,2.1,2.9,2.1c2.6,0,2.8-1.2,2.8-1.4h4.5v0.3c0,1.3-0.9,4.1-7.1,4.1
			H8.7z"/>
		<path class="st0" d="M20.3,14.3l-4.8-9.8h5l3,6.4l2.8-6.4h4.6l-4.4,9.8H20.3z"/>
	</g>
	<g>
		<path class="st0" d="M5.5,26.4c-3.6,0-4.6-2-4.6-3.5c0-0.2,0-0.5,0.1-0.7c0.2-1.5,1.2-3.6,5.5-3.6h0.3c4.2,0,4.8,1.9,4.7,2.9H8.9
			c0-0.2-0.2-1.1-2.5-1.1c-2.3,0-3,1-3.1,2c0,0.2,0,0.2,0,0.4c0,1,0.7,1.9,2.6,1.9c2.1,0,2.9-0.8,3-1.1H6L6.2,22h5.2l-0.7,4.3H9.3
			c0-0.3,0-0.9-0.1-1.2c-0.3,0.4-1.4,1.3-3.5,1.3H5.5z"/>
		<path class="st0" d="M20.9,18.6l-0.3,1.7h-5.5l-0.2,1.1h5.4L20,23.2h-5.4l-0.2,1.3H20l-0.3,1.8h-7.9l1.2-7.7H20.9z"/>
		<path class="st0" d="M24.5,18.6l3.9,4.9l0.8-4.9h2.3l-1.2,7.7H28l-4.2-5.2L23,26.3h-2.3l1.2-7.7H24.5z"/>
	</g>
</g>
</svg>
